<?xml version="1.0" encoding="UTF-8"?>
<svg id="Layer_1" data-name="Layer 1" xmlns="http://www.w3.org/2000/svg" viewBox="0 0 70.67 70.67">
  <path d="M68.67,16.67h-14.67V2c0-1.1-.9-2-2-2H2C.9,0,0,.9,0,2v50c0,1.1.9,2,2,2h14.67v14.67c0,1.1.9,2,2,2h50c1.1,0,2-.9,2-2V18.67c0-1.1-.9-2-2-2ZM4,4h46v46H4V4ZM66.67,66.67H20.67v-12.67h31.33c1.1,0,2-.9,2-2v-31.33h12.67v46Z" style="fill: #000; stroke-width: 0px;"/>
  <polygon points="41 25 29 25 29 13 25 13 25 25 13 25 13 29 25 29 25 41 29 41 29 29 41 29 41 25" style="fill: #000; stroke-width: 0px;"/>
</svg>