<?xml version="1.0" encoding="UTF-8"?>
<svg id="Layer_1" data-name="Layer 1" xmlns="http://www.w3.org/2000/svg" viewBox="0 0 64 64">
  <path d="M32,64C14.35,64,0,49.65,0,32S14.35,0,32,0s32,14.35,32,32-14.35,32-32,32ZM32,4c-15.44,0-28,12.56-28,28s12.56,28,28,28,28-12.56,28-28S47.44,4,32,4Z" style="fill: #000; stroke-width: 0px;"/>
  <polygon points="46.84 19.99 44.01 17.16 32 29.17 19.99 17.16 17.16 19.99 29.17 32 17.16 44.01 19.99 46.84 32 34.83 44.01 46.84 46.84 44.01 34.83 32 46.84 19.99" style="fill: #000; stroke-width: 0px;"/>
</svg>