<?xml version="1.0" encoding="UTF-8"?>
<svg id="Layer_1" data-name="Layer 1" xmlns="http://www.w3.org/2000/svg" viewBox="0 0 70.67 70.64">
  <path d="M70.08,33.9l-9.75-9.75-2.83,2.83,6.33,6.33h-26.51V6.81l6.33,6.33,2.83-2.83L36.75.56c-.75-.75-2.08-.75-2.83,0l-9.75,9.75,2.83,2.83,6.33-6.33v26.5H6.83l6.33-6.33-2.83-2.83L.59,33.9c-.38.38-.59.88-.59,1.41s.21,1.04.59,1.41l9.75,9.75,2.83-2.83-6.33-6.33h26.5v26.51l-6.33-6.33-2.83,2.83,9.75,9.75c.38.38.88.59,1.41.59s1.04-.21,1.41-.59l9.75-9.75-2.83-2.83-6.33,6.33v-26.51h26.51l-6.33,6.33,2.83,2.83,9.75-9.75c.38-.38.59-.88.59-1.41s-.21-1.04-.59-1.41Z" style="fill: #000; stroke-width: 0px;"/>
</svg>