<?xml version="1.0" encoding="UTF-8"?>
<svg id="Layer_1" data-name="Layer 1" xmlns="http://www.w3.org/2000/svg" viewBox="0 0 88.99 100">
  <path d="M80.39,3.06H15.72c-3.31,0-6,2.69-6,6v47.39H2.11v30.05h7.61v8.06h76.67v-19.11H9.72v8.06h-4.61v-24.05h4.61v8.06h76.67V9.06c0-3.31-2.69-6-6-6ZM82.39,90.55H27.61v-11.11h54.77v11.11ZM13.72,79.44h9.89v11.11h-9.89v-11.11ZM13.72,22.17h9.89v11.11h-9.89v-11.11ZM13.72,37.28h9.89v11.11h-9.89v-11.11ZM13.72,52.39h9.89v11.11h-9.89v-11.11ZM82.39,63.5H27.61v-11.11h54.77v11.11ZM82.39,48.39H27.61v-11.11h54.77v11.11ZM82.39,33.28H27.61v-11.11h54.77v11.11Z" style="fill: #5a8a5a;"/>
</svg>