<?xml version="1.0" encoding="UTF-8"?>
<svg id="Layer_1" data-name="Layer 1" xmlns="http://www.w3.org/2000/svg" viewBox="0 0 88.99 100">
  <path d="M77.74,67.16v-18.35h-31.24v-9.98h24.35c4.4,0,7.98-3.58,7.98-7.98v-14.93c0-4.4-3.58-7.98-7.98-7.98H18.14c-4.4,0-7.98,3.58-7.98,7.98v14.93c0,4.4,3.58,7.98,7.98,7.98h24.35v9.98H11.26v18.35c-5.96.96-10.54,6.13-10.54,12.36,0,6.91,5.62,12.54,12.54,12.54s12.54-5.62,12.54-12.54c0-6.23-4.57-11.4-10.54-12.36v-14.34h27.24v14.34c-5.96.96-10.54,6.13-10.54,12.36,0,6.91,5.62,12.54,12.54,12.54s12.54-5.62,12.54-12.54c0-6.23-4.57-11.4-10.54-12.36v-14.34h27.24v14.34c-5.96.96-10.54,6.13-10.54,12.36,0,6.91,5.62,12.54,12.54,12.54s12.54-5.62,12.54-12.54c0-6.23-4.57-11.4-10.54-12.36ZM14.17,30.85v-14.93c0-2.19,1.78-3.98,3.98-3.98h52.71c2.19,0,3.98,1.78,3.98,3.98v14.93c0,2.19-1.78,3.98-3.98,3.98H18.14c-2.19,0-3.98-1.78-3.98-3.98ZM21.79,79.52c0,4.71-3.83,8.54-8.54,8.54s-8.54-3.83-8.54-8.54,3.83-8.54,8.54-8.54,8.54,3.83,8.54,8.54ZM53.03,79.52c0,4.71-3.83,8.54-8.54,8.54s-8.54-3.83-8.54-8.54,3.83-8.54,8.54-8.54,8.54,3.83,8.54,8.54ZM75.74,88.05c-4.71,0-8.54-3.83-8.54-8.54s3.83-8.54,8.54-8.54,8.54,3.83,8.54,8.54-3.83,8.54-8.54,8.54Z" style="fill: #5a8a5a;"/>
</svg>